Coordinates
version=1
nRows=7
nColumns=40
inDegrees=yes

Units are S.I. units (second, meters, Newtons, ...)
Angles are in degrees.

endheader
time	pelvis_tilt	pelvis_list	pelvis_rotation	pelvis_tx	pelvis_ty	pelvis_tz	hip_flexion_r	hip_adduction_r	hip_rotation_r	knee_angle_r	knee_angle_r_beta	ankle_angle_r	subtalar_angle_r	mtp_angle_r	hip_flexion_l	hip_adduction_l	hip_rotation_l	knee_angle_l	knee_angle_l_beta	ankle_angle_l	subtalar_angle_l	mtp_angle_l	lumbar_extension	lumbar_bending	lumbar_rotation	arm_flex_r	arm_add_r	arm_rot_r	elbow_flex_r	pro_sup_r	wrist_flex_r	wrist_dev_r	arm_flex_l	arm_add_l	arm_rot_l	elbow_flex_l	pro_sup_l	wrist_flex_l	wrist_dev_l
     14.35328571	     -4.07473148	     -6.00042409	      4.39852075	      1.01740137	      0.92218951	      0.49139271	     -1.65535244	      4.82416311	    -19.58056344	      9.40021145	      9.40021145	     15.34704336	      7.54468665	     -5.49635788	     29.32520033	    -11.43127242	     -4.06855125	     21.92717556	     21.92717556	      2.66448954	     -7.67498354	      5.90460018	     -8.07899350	      7.22943521	      4.94447624	     31.78872666	    -16.46864491	     -7.03253940	     86.68777522	     44.77564002	      0.00000000	      0.00000000	    -13.40629412	     -7.22577627	     12.16151773	     33.61482184	     43.28207568	      0.00000000	      0.00000000
     14.36657143	     -4.03110544	     -6.02155716	      4.16636679	      1.01844072	      0.92167897	      0.48922867	     -1.94859371	      4.61088047	    -19.32488613	      9.81605134	      9.81605134	     15.60853724	      7.49901808	     -5.52394947	     28.91078467	    -11.28956830	     -3.73749958	     22.64527163	     22.64527163	      2.87798107	     -8.14311372	      5.77215938	     -8.02883544	      7.20149057	      4.94723839	     31.74227267	    -16.26807209	     -7.05459802	     86.95690536	     44.77051819	      0.00000000	      0.00000000	    -13.43078049	     -7.28628081	     12.26062146	     33.92480778	     43.27876752	      0.00000000	      0.00000000
     14.37985714	     -4.16864516	     -5.99814315	      3.98115041	      1.01922176	      0.92103176	      0.48679870	     -1.84298503	      4.25718112	    -19.05408717	     10.62195400	     10.62195400	     16.05210376	      7.23820585	     -5.31545600	     28.73242101	    -10.99266232	     -3.11902642	     23.24594804	     23.24594804	      3.14551198	     -9.00910458	      5.90744576	     -7.84296466	      7.10716035	      4.95686215	     31.43165369	    -16.13878885	     -7.24374102	     87.62938104	     44.76782826	      0.00000000	      0.00000000	    -13.60188584	     -7.56640966	     12.66477611	     35.07449893	     43.27107047	      0.00000000	      0.00000000
     14.39314286	     -4.09412952	     -5.98156462	      3.84888551	      1.02013222	      0.92086930	      0.48417762	     -2.18940894	      3.99004852	    -18.86683967	     10.97248914	     10.97248914	     16.19785603	      7.20392801	     -5.31655297	     28.42349766	    -10.81058427	     -2.83663582	     23.91096722	     23.91096722	      3.58083140	     -9.39849412	      5.73198887	     -7.87083158	      7.03919893	      4.90836161	     31.21622819	    -16.10643062	     -7.24219024	     87.61160102	     44.77095900	      0.00000000	      0.00000000	    -13.34679851	     -7.70402944	     12.73745017	     35.29279093	     43.27767469	      0.00000000	      0.00000000
     14.40642857	     -4.06767171	     -5.92772846	      3.78535682	      1.02093181	      0.92081018	      0.48125848	     -2.47260106	      3.66522569	    -18.73491093	     11.32782471	     11.32782471	     16.28022805	      7.12014962	     -5.33336408	     28.20510363	    -10.56046872	     -2.55859779	     24.51465624	     24.51465624	      4.06660113	     -9.78678404	      5.53482751	     -7.87894802	      6.95242164	      4.76057673	     30.86387787	    -16.07038853	     -7.21085674	     87.50796290	     44.77380773	      0.00000000	      0.00000000	    -12.94025019	     -7.85347325	     12.74407201	     35.48183155	     43.28924281	      0.00000000	      0.00000000
     14.41971429	     -4.20364337	     -5.87522027	      3.70162813	      1.02142500	      0.92057719	      0.47807324	     -2.26451043	      3.19676616	    -18.63466958	     12.28249374	     12.28249374	     16.50949540	      6.88854953	     -5.34856748	     28.25587443	    -10.22489565	     -2.06113096	     25.17661203	     25.17661203	      4.57011039	    -10.70001815	      5.81061725	     -7.74027348	      6.87267945	      4.81774431	     30.39412444	    -16.42550636	     -7.31649187	     87.28101244	     44.79207636	      0.00000000	      0.00000000	    -12.43278197	     -8.09998126	     12.85582111	     35.86771480	     43.31653545	      0.00000000	      0.00000000
     14.43300000	     -4.14546719	     -5.81763738	      3.68113495	      1.02214835	      0.92083547	      0.47473939	     -2.55944585	      2.83382637	    -18.57496493	     12.66081640	     12.66081640	     16.49565136	      6.82480632	     -5.34106278	     28.04275652	     -9.96324085	     -1.85680724	     25.72268754	     25.72268754	      5.12981290	    -11.11001556	      5.69129906	     -7.82810236	      6.79404770	      4.60508466	     29.89527194	    -16.48832350	     -7.30895309	     87.01677394	     44.80099569	      0.00000000	      0.00000000	    -11.85798729	     -8.32439899	     12.82617193	     36.02197211	     43.33775452	      0.00000000	      0.00000000
